<?xml version="1.0" standalone="no"?><!DOCTYPE svg PUBLIC "-//W3C//DTD SVG 1.1//EN" "http://www.w3.org/Graphics/SVG/1.1/DTD/svg11.dtd"><svg t="1681265554864" class="icon" viewBox="0 0 1024 1024" version="1.1" xmlns="http://www.w3.org/2000/svg" p-id="5529" xmlns:xlink="http://www.w3.org/1999/xlink" width="48" height="48"><path d="M656 924.224h-307.2a19.2 19.2 0 1 1 0-38.4h307.2a19.2 19.2 0 1 1 0 38.4z" fill="#5E482A" p-id="5530"></path><path d="M501.312 905.024c118.08-124.864 321.472-288 321.984-468.608S683.392 115.2 503.744 115.2a317.952 317.952 0 0 0-322.176 320c-0.576 180.288 194.944 344.32 320 469.888" fill="#32BAFD" p-id="5531"></path><path d="M501.312 920.128a15.104 15.104 0 0 1-10.752-4.48c-15.872-16-32.832-32.512-50.688-49.92C317.824 746.752 165.952 598.656 166.4 435.2a332.8 332.8 0 0 1 336.256-335.424h1.088A331.968 331.968 0 0 1 838.4 436.48c-0.448 155.2-143.616 296.896-258.688 410.816-24.192 23.936-47.04 46.592-67.712 67.904a15.104 15.104 0 0 1-10.816 4.736z m1.344-790.144A302.784 302.784 0 0 0 196.672 435.2c-0.448 150.784 146.368 293.952 264.32 408.96 13.952 13.44 27.264 26.24 40.064 39.04 17.856-18.432 37.12-37.568 57.6-57.6 111.04-109.952 249.28-246.72 249.6-389.376A301.76 301.76 0 0 0 503.68 130.048z" fill="#5E482A" p-id="5532"></path><path d="M502.63034 387.32806m-0.570412 181.567104a181.568 181.568 0 1 0 1.140823-363.134208 181.568 181.568 0 1 0-1.140823 363.134208Z" fill="#FFCF06" p-id="5533"></path><path d="M502.592 584h-0.64a196.672 196.672 0 0 1 0.576-393.344h0.64a196.864 196.864 0 0 1 196.032 197.248 196.672 196.672 0 0 1-196.608 196.096z m0-363.072a166.4 166.4 0 0 0-0.512 332.8h0.512a166.4 166.4 0 0 0 0.512-332.8z" fill="#5E482A" p-id="5534"></path><path d="M502.63034 387.32806m-0.271031 86.271574a86.272 86.272 0 1 0 0.542062-172.543148 86.272 86.272 0 1 0-0.542062 172.543148Z" fill="#FFFFFF" p-id="5535"></path><path d="M502.592 488.704a101.376 101.376 0 0 1 0-202.816h0.32a101.376 101.376 0 0 1 0 202.816z m0-172.8a71.168 71.168 0 0 0 0 142.336 71.168 71.168 0 0 0 71.104-70.72A71.168 71.168 0 0 0 502.784 316.16z" fill="#5E482A" p-id="5536"></path></svg>