<?xml version="1.0" standalone="no"?><!DOCTYPE svg PUBLIC "-//W3C//DTD SVG 1.1//EN" "http://www.w3.org/Graphics/SVG/1.1/DTD/svg11.dtd"><svg t="1681265769963" class="icon" viewBox="0 0 1024 1024" version="1.1" xmlns="http://www.w3.org/2000/svg" p-id="13210" xmlns:xlink="http://www.w3.org/1999/xlink" width="48" height="48"><path d="M891.6 475.9c-0.3-0.4-0.4-0.8-0.8-1.2l-34.1-34.1 0.3-0.3-67.7-67.7-0.3 0.3-135.8-135.8 0.3-0.3-67.9-67.9-0.5 0.5-67.8-67.8c-9.4-9.4-21.6-14.1-33.9-14.1s-24.6 4.7-33.9 14.1c-18.7 18.7-18.7 49 0 67.8l-162 161.8c-5.3 5.3-9.1 11.5-11.5 18.7L181.4 634c-2.4 6.7-6.2 13.4-11.5 18.7l-25.9 26c-18.7 18.7-18.7 49 0 67.7l32.7 32.7c0.8 0.8 0.8 2 0 2.8l-77.3 76.8c-18.7 18.7-18.7 49.4 0 68.2 9.6 9.1 21.6 13.9 34.1 13.9 12 0 24.5-4.8 33.6-13.9l77.3-77.3c0.8-0.8 2.1-0.8 2.8 0l32.7 32.7c9.1 9.1 21.6 13.9 33.6 13.9 12.5 0 25-4.8 34.1-13.9l25.9-25.9c5.3-5.3 12-9.1 18.7-11.5l284.1-94.5c7.2-2.4 13.4-6.7 18.7-12L856.8 577c9.3 9.3 21.6 14 33.8 14s24.3-4.6 33.7-13.8c19-18.7 18.5-49.9-0.3-68.7l-32.4-32.6z m-312.3 18.9h-26.6c-1.4 0-2.3 1.3-1.9 2.6l26.1 78.2c4.9 14.6 2.4 30.8-6.6 43.3s-23.5 19.9-38.9 19.9h-96c-26.5 0-48-21.5-48-48s21.5-48 48-48H462c1.4 0 2.3-1.3 1.9-2.6L437.8 462c-4.9-14.6-2.4-30.8 6.6-43.3s23.5-19.9 38.9-19.9h96c26.5 0 48 21.5 48 48s-21.5 48-48 48z" fill="#42b3f2" p-id="13211" data-spm-anchor-id="a313x.7781069.0.i27" class=""></path><path d="M924.4 305.3c-9.1-9.6-21.6-13.9-33.6-13.9-12.5 0-25 4.3-34.1 13.9l-32 32c-0.8 0.8-0.8 2 0 2.8l64.8 64.8c0.8 0.8 2 0.8 2.8 0l32-32c18.8-18.7 18.8-48.9 0.1-67.6zM686.8 87.4c-12 0-24.5 4.8-33.6 14.4L621 133.7c-0.8 0.8-0.8 2 0 2.8l65 65c0.8 0.8 2 0.8 2.8 0l32-32c18.7-18.7 18.7-49 0-67.7-9.5-9.6-21.5-14.4-34-14.4z" fill="#05E8FE" p-id="13212" data-spm-anchor-id="a313x.7781069.0.i28" class="selected"></path></svg>