<?xml version="1.0" standalone="no"?><!DOCTYPE svg PUBLIC "-//W3C//DTD SVG 1.1//EN" "http://www.w3.org/Graphics/SVG/1.1/DTD/svg11.dtd"><svg t="1677311918545" class="icon" viewBox="0 0 1024 1024" version="1.1" xmlns="http://www.w3.org/2000/svg" p-id="2031" xmlns:xlink="http://www.w3.org/1999/xlink" width="64" height="64"><path d="M625.52 341.888V120.176H393.44v221.712c0 148.688-132.664 99.472-132.664 199v419.232a45.968 45.968 0 0 0 45.968 45.968h405.472a45.968 45.968 0 0 0 45.968-45.968V540.888c0-99.52-132.664-50.312-132.664-199z" fill="#FFD553" p-id="2032"></path><path d="M625.52 120.176V37.784a21.936 21.936 0 0 0-21.88-21.872h-188.32a21.936 21.936 0 0 0-21.88 21.872v82.4h232.08z" fill="#C3DDF7" p-id="2033"></path><path d="M509.48 97.92c-8.792 0-15.92-7.12-15.92-15.912v-27.92a15.912 15.912 0 1 1 31.84 0v27.92c0 8.784-7.128 15.92-15.92 15.92zM443.856 97.92c-8.792 0-15.912-7.12-15.912-15.912v-27.92a15.912 15.912 0 1 1 31.824 0v27.92a15.92 15.92 0 0 1-15.912 15.92zM575.104 97.92c-8.792 0-15.92-7.12-15.92-15.912v-27.92a15.912 15.912 0 1 1 31.832 0v27.92a15.92 15.92 0 0 1-15.92 15.92z" fill="#2F3953" p-id="2034"></path><path d="M672.376 884.112V723.176a21.28 21.28 0 0 0-21.216-21.216h-283.36a21.28 21.28 0 0 0-21.216 21.216v160.936h325.792z" fill="#FFFFFF" p-id="2035"></path><path d="M570.88 852.96c-8.8 0-15.92-7.12-15.92-15.912v-46.744l-36.608 24.592a15.92 15.92 0 0 1-17.744 0l-36.624-24.592v46.744a15.912 15.912 0 1 1-31.824 0v-76.608a15.92 15.92 0 0 1 24.784-13.2l52.536 35.28 52.52-35.28a15.92 15.92 0 0 1 24.792 13.2v76.608a15.92 15.92 0 0 1-15.92 15.92z" fill="#FDBA55" p-id="2036"></path><path d="M672.376 884.112v34.272a21.28 21.28 0 0 1-21.216 21.216h-283.36a21.28 21.28 0 0 1-21.216-21.216v-34.272h325.792z" fill="#46C79C" p-id="2037"></path><path d="M367.752 545.488m-28.816 0a28.816 28.816 0 1 0 57.632 0 28.816 28.816 0 1 0-57.632 0Z" fill="#3F4963" p-id="2038"></path><path d="M398.568 637.712h-61.64a15.912 15.912 0 1 1 0-31.824h61.648a15.912 15.912 0 1 1 0 31.824z" fill="#FF0019" p-id="2039"></path><path d="M480.832 613.2a44.608 44.608 0 0 1-44.56-44.56 15.912 15.912 0 1 1 31.832 0c0 7.024 5.712 12.736 12.728 12.736 7.024 0 12.736-5.712 12.736-12.728a15.912 15.912 0 1 1 31.824 0 44.608 44.608 0 0 1-44.56 44.56z" fill="#3F4963" p-id="2040"></path><path d="M538.12 613.2a44.608 44.608 0 0 1-44.56-44.56 15.912 15.912 0 1 1 31.84 0c0 7.024 5.704 12.736 12.72 12.736 7.024 0 12.736-5.712 12.736-12.728a15.912 15.912 0 1 1 31.824 0 44.608 44.608 0 0 1-44.56 44.56z" fill="#3F4963" p-id="2041"></path><path d="M682.04 637.712h-61.648a15.912 15.912 0 1 1 0-31.824h61.648a15.912 15.912 0 1 1 0 31.824z" fill="#FF0019" p-id="2042"></path><path d="M680.024 567.88c-8.792 0-15.912-7.12-15.912-15.912 0-7.112-5.784-12.896-12.896-12.896-7.12 0-12.904 5.784-12.904 12.896a15.92 15.92 0 1 1-31.824 0 44.776 44.776 0 0 1 44.72-44.72 44.776 44.776 0 0 1 44.728 44.72c0 8.792-7.12 15.92-15.912 15.92z" fill="#3F4963" p-id="2043"></path><path d="M393.448 205.472h232.08v95.376h-232.08z" fill="#FDBA55" p-id="2044"></path><path d="M367.752 574.32a28.816 28.816 0 1 0 0-57.632 28.816 28.816 0 0 0 0 57.624z m113.08 38.88a44.328 44.328 0 0 0 28.64-10.48 44.328 44.328 0 0 0 28.648 10.48 44.608 44.608 0 0 0 44.56-44.56 15.912 15.912 0 1 0-31.824 0 12.744 12.744 0 0 1-25.464 0 15.912 15.912 0 1 0-31.824 0 12.744 12.744 0 0 1-25.464 0 15.912 15.912 0 1 0-31.824 0 44.608 44.608 0 0 0 44.56 44.56z m170.384-105.96a44.776 44.776 0 0 0-44.728 44.72 15.912 15.912 0 1 0 31.824 0c0-7.112 5.784-12.896 12.904-12.896 7.112 0 12.896 5.792 12.896 12.904a15.912 15.912 0 1 0 31.824 0 44.776 44.776 0 0 0-44.72-44.728z m58.184-55.904c-34.96-19.088-67.968-37.112-67.968-109.448V37.784A37.832 37.832 0 0 0 603.64 0h-188.32a37.832 37.832 0 0 0-37.792 37.784v304.104c0 72.336-33.016 90.36-67.968 109.44-30.32 16.56-64.696 35.328-64.696 89.56v419.232c0 34.12 27.76 61.88 61.88 61.88h405.472c34.12 0 61.88-27.76 61.88-61.88V540.88c0-54.224-34.368-72.992-64.696-89.552zM409.352 37.784c0-3.224 2.736-5.96 5.968-5.96h188.32c3.232 0 5.968 2.728 5.968 5.96v66.48H409.36v-66.48z m332.92 922.336a30.088 30.088 0 0 1-30.056 30.056H306.744a30.088 30.088 0 0 1-30.056-30.056V540.888c0-35.344 19.144-45.792 48.128-61.616 37.664-20.56 84.544-46.16 84.544-137.384V136.096H609.6v205.792c0 91.232 46.88 116.824 84.552 137.384 28.976 15.824 48.128 26.28 48.128 61.616v419.232z m-91.12-274.072H367.808a37.176 37.176 0 0 0-37.128 37.136v195.2a37.176 37.176 0 0 0 37.128 37.136h283.36a37.176 37.176 0 0 0 37.136-37.136v-195.2a37.176 37.176 0 0 0-37.136-37.136z m5.312 232.336c0 2.88-2.432 5.304-5.304 5.304h-283.36a5.376 5.376 0 0 1-5.304-5.304v-195.2c0-2.88 2.432-5.312 5.304-5.312h283.36c2.88 0 5.304 2.432 5.304 5.304v195.208z" fill="#000000" p-id="2045"></path></svg>