<?xml version="1.0" standalone="no"?><!DOCTYPE svg PUBLIC "-//W3C//DTD SVG 1.1//EN" "http://www.w3.org/Graphics/SVG/1.1/DTD/svg11.dtd"><svg t="1681265411602" class="icon" viewBox="0 0 1024 1024" version="1.1" xmlns="http://www.w3.org/2000/svg" p-id="4337" width="48" height="48" xmlns:xlink="http://www.w3.org/1999/xlink"><path d="M605.184 145.2032H226.0992c-25.5488 0-46.2336 22.2208-46.2336 49.6128v706.6112h471.552V194.816c0-27.392-20.6848-49.6128-46.2336-49.6128z" fill="#76BFFF" p-id="4338"></path><path d="M605.184 145.2032h-12.9536v756.224h59.1872V194.816c0-27.392-20.6848-49.6128-46.2336-49.6128z" fill="#659CF8" p-id="4339"></path><path d="M124.6208 380.7232c-8.4992 0-15.36-6.8608-15.36-15.36v-25.6512c0-8.4992 6.8608-15.36 15.36-15.36s15.36 6.8608 15.36 15.36v25.6512c0 8.448-6.912 15.36-15.36 15.36zM124.6208 717.312c-8.4992 0-15.36-6.8608-15.36-15.36V433.2032c0-8.4992 6.8608-15.36 15.36-15.36s15.36 6.8608 15.36 15.36v268.7488c0 8.4992-6.912 15.36-15.36 15.36z" fill="#333333" p-id="4340"></path><path d="M865.3824 287.7952h-168.704v613.632h206.5408V331.9808c0-24.4224-16.9472-44.1856-37.8368-44.1856z" fill="#FF7D7B" p-id="4341"></path><path d="M903.2192 901.4272h-57.6512V288.0512h23.7568c18.7392 0 33.9456 15.2064 33.9456 33.9456v579.4304z" fill="#F75252" p-id="4342"></path><path d="M835.7376 416.1536h-114.8928c-8.4992 0-15.36-6.8608-15.36-15.36s6.8608-15.36 15.36-15.36h114.8928c8.4992 0 15.36 6.8608 15.36 15.36s-6.8608 15.36-15.36 15.36zM835.7376 594.176h-114.8928c-8.4992 0-15.36-6.8608-15.36-15.36s6.8608-15.36 15.36-15.36h114.8928c8.4992 0 15.36 6.8608 15.36 15.36s-6.8608 15.36-15.36 15.36zM835.7376 766.3616h-114.8928c-8.4992 0-15.36-6.8608-15.36-15.36s6.8608-15.36 15.36-15.36h114.8928c8.4992 0 15.36 6.8608 15.36 15.36s-6.8608 15.36-15.36 15.36z" fill="#333333" p-id="4343"></path><path d="M503.7056 363.3664H307.6608c-10.1888 0-18.4832-8.2944-18.4832-18.4832V281.5488c0-10.1888 8.2944-18.4832 18.4832-18.4832h196.0448c10.1888 0 18.4832 8.2944 18.4832 18.4832v63.3344c0 10.1888-8.2432 18.4832-18.4832 18.4832zM503.7056 564.6336H307.6608c-10.1888 0-18.4832-8.2944-18.4832-18.4832V482.8672c0-10.1888 8.2944-18.4832 18.4832-18.4832h196.0448c10.1888 0 18.4832 8.2944 18.4832 18.4832v63.3344a18.432 18.432 0 0 1-18.4832 18.432zM503.7056 767.4368H307.6608c-10.1888 0-18.4832-8.2944-18.4832-18.4832v-63.3344c0-10.1888 8.2944-18.4832 18.4832-18.4832h196.0448c10.1888 0 18.4832 8.2944 18.4832 18.4832v63.3344c0 10.1888-8.2432 18.4832-18.4832 18.4832z" fill="#ECD300" p-id="4344"></path><path d="M469.5552 265.8304h45.2096v89.6h-45.2096zM469.5552 470.528h45.2096v89.6h-45.2096zM469.5552 670.6688h45.2096v89.6h-45.2096z" fill="#E8A200" p-id="4345"></path><path d="M503.7056 378.7264H338.944c-8.4992 0-15.36-6.8608-15.36-15.36s6.8608-15.36 15.36-15.36h164.7616c1.6896 0 3.1232-1.3824 3.1232-3.1232V274.0224c0-1.6896-1.3824-3.1232-3.1232-3.1232h-231.424c-1.6896 0-3.1232 1.3824-3.1232 3.1232v70.8608c0 1.6896 1.3824 3.1232 3.1232 3.1232h18.0224c8.4992 0 15.36 6.8608 15.36 15.36s-6.8608 15.36-15.36 15.36h-18.0224c-18.6368 0-33.8432-15.1552-33.8432-33.8432V274.0224c0-18.6368 15.1552-33.8432 33.8432-33.8432h231.424c18.6368 0 33.8432 15.1552 33.8432 33.8432v70.8608a33.8432 33.8432 0 0 1-33.8432 33.8432zM503.7056 583.0144H341.8112c-8.4992 0-15.36-6.8608-15.36-15.36s6.8608-15.36 15.36-15.36h161.9456c1.6896 0 3.1232-1.3824 3.1232-3.1232V478.3104c0-1.6896-1.3824-3.1232-3.1232-3.1232h-231.424c-1.6896 0-3.1232 1.3824-3.1232 3.1232v70.8608c0 1.6896 1.3824 3.1232 3.1232 3.1232h18.3296c8.4992 0 15.36 6.8608 15.36 15.36s-6.8608 15.36-15.36 15.36h-18.3296c-18.6368 0-33.8432-15.1552-33.8432-33.8432V478.3104c0-18.6368 15.1552-33.8432 33.8432-33.8432h231.424c18.6368 0 33.8432 15.1552 33.8432 33.8432v70.8608c-0.0512 18.688-15.2064 33.8432-33.8944 33.8432zM503.7056 787.3024H339.8144c-8.4992 0-15.36-6.8608-15.36-15.36s6.8608-15.36 15.36-15.36h163.9424c1.6896 0 3.1232-1.3824 3.1232-3.1232v-70.8608c0-1.6896-1.3824-3.1232-3.1232-3.1232h-231.424c-1.6896 0-3.1232 1.3824-3.1232 3.1232v70.8608c0 1.6896 1.3824 3.1232 3.1232 3.1232h18.0224c8.4992 0 15.36 6.8608 15.36 15.36s-6.8608 15.36-15.36 15.36h-18.0224c-18.6368 0-33.8432-15.1552-33.8432-33.8432v-70.8608c0-18.6368 15.1552-33.8432 33.8432-33.8432h231.424c18.6368 0 33.8432 15.1552 33.8432 33.8432v70.8608c-0.0512 18.688-15.2064 33.8432-33.8944 33.8432z" fill="#333333" p-id="4346"></path><path d="M973.7216 886.0672h-55.1424V307.4048c0-33.8944-27.5456-61.44-61.44-61.44h-190.3616v-80.384c0-36.9664-30.0544-67.0208-67.0208-67.0208H176.2304c-36.9664 0-67.0208 30.0544-67.0208 67.0208v74.5984c0 8.4992 6.8608 15.36 15.36 15.36s15.36-6.8608 15.36-15.36V165.5808c0-20.0192 16.2816-36.3008 36.3008-36.3008h423.5264c20.0192 0 36.3008 16.2816 36.3008 36.3008v720.4864H139.9808v-128.7168c0-8.4992-6.8608-15.36-15.36-15.36s-15.36 6.8608-15.36 15.36v128.7168H52.48c-8.4992 0-15.36 6.8608-15.36 15.36s6.8608 15.36 15.36 15.36h921.2416c8.4992 0 15.36-6.8608 15.36-15.36s-6.912-15.36-15.36-15.36z m-306.688 0V276.6848h190.1056c16.9472 0 30.72 13.7728 30.72 30.72v578.6624h-220.8256z" fill="#333333" p-id="4347"></path><path d="M402.2784 204.7488H288.4608a12.8 12.8 0 0 1 0-25.6h113.8176a12.8 12.8 0 0 1 0 25.6zM243.7632 204.7488h-9.3696a12.8 12.8 0 0 1 0-25.6h9.3696a12.8 12.8 0 0 1 0 25.6zM802.304 340.992h-34.7648a12.8 12.8 0 0 1 0-25.6h34.7648a12.8 12.8 0 0 1 0 25.6zM731.8528 340.992h-5.632a12.8 12.8 0 0 1 0-25.6h5.632a12.8 12.8 0 0 1 0 25.6zM394.0864 315.6992h-34.7648a12.8 12.8 0 0 1 0-25.6h34.7648a12.8 12.8 0 0 1 0 25.6zM323.6352 315.6992h-5.632a12.8 12.8 0 0 1 0-25.6h5.632a12.8 12.8 0 0 1 0 25.6zM394.0864 517.5296h-34.7648a12.8 12.8 0 0 1 0-25.6h34.7648a12.8 12.8 0 0 1 0 25.6zM323.6352 517.5296h-5.632a12.8 12.8 0 0 1 0-25.6h5.632a12.8 12.8 0 0 1 0 25.6zM394.0864 722.7392h-34.7648a12.8 12.8 0 0 1 0-25.6h34.7648a12.8 12.8 0 0 1 0 25.6zM323.6352 722.7392h-5.632a12.8 12.8 0 0 1 0-25.6h5.632a12.8 12.8 0 0 1 0 25.6z" fill="#FFFFFF" p-id="4348"></path></svg>