<?xml version="1.0" standalone="no"?><!DOCTYPE svg PUBLIC "-//W3C//DTD SVG 1.1//EN" "http://www.w3.org/Graphics/SVG/1.1/DTD/svg11.dtd"><svg t="1677311994239" class="icon" viewBox="0 0 1638 1024" version="1.1" xmlns="http://www.w3.org/2000/svg" p-id="2529" xmlns:xlink="http://www.w3.org/1999/xlink" width="102.375" height="64"><path d="M547.8656 555.328c-27.6224 27.6864-72.8448 27.6864-100.48 0L261.504 369.0752c-27.648-27.6864-27.648-72.9984 0-100.6848l185.8816-186.24c27.6352-27.6864 72.8576-27.6864 100.48 0l185.8944 186.24c27.648 27.6864 27.648 72.9984 0 100.6848l-185.8944 186.24zM1087.3344 555.328c27.648 27.6864 72.8576 27.6864 100.48 0l185.8944-186.2528c27.6352-27.6864 27.6352-72.9984 0-100.6848L1187.84 82.1504c-27.648-27.6864-72.8576-27.6864-100.48 0l-185.8944 186.24c-27.648 27.6864-27.648 72.9984 0 100.6848l185.8816 186.24z" fill="#E2411C" p-id="2530"></path><path d="M583.2576 261.6832a234.8032 234.3424 90 1 0 468.6848 0 234.8032 234.3424 90 1 0-468.6848 0Z" fill="#46C79C" p-id="2531"></path><path d="M565.376 700.0064c-143.2704 0-259.84-116.7872-259.84-260.352s116.5568-260.352 259.84-260.352 259.84 116.7872 259.84 260.352c0 143.552-116.5568 260.352-259.84 260.352z m0-469.6064c-115.1488 0-208.8448 93.8752-208.8448 209.2544s93.696 209.2544 208.8448 209.2544c115.1616 0 208.8448-93.8624 208.8448-209.2544C774.2208 324.2752 680.5248 230.4 565.376 230.4z" fill="#FFFFFF" p-id="2532"></path><path d="M60.9152 564.224a234.8032 234.3424 90 1 0 468.6848 0 234.8032 234.3424 90 1 0-468.6848 0Z" fill="#46C79C" p-id="2533"></path><path d="M1069.824 700.0064c-143.2704 0-259.84-116.7872-259.84-260.352s116.5696-260.352 259.84-260.352c143.2832 0 259.8528 116.7872 259.8528 260.352 0 143.552-116.5696 260.352-259.84 260.352z m0-469.6064c-115.1488 0-208.8448 93.8752-208.8448 209.2544s93.696 209.2544 208.8576 209.2544c115.1488 0 208.8448-93.8624 208.8448-209.2544C1278.6816 324.2752 1184.9856 230.4 1069.824 230.4z" fill="#FFFFFF" p-id="2534"></path><path d="M1105.6 564.224a234.8032 234.3424 90 1 0 468.6848 0 234.8032 234.3424 90 1 0-468.6848 0Z" fill="#46C79C" p-id="2535"></path><path d="M1339.9552 711.2192a135.1424 134.8736 90 1 0 269.7472 0 135.1424 134.8736 90 1 0-269.7472 0Z" fill="#FF6376" p-id="2536"></path><path d="M25.5104 711.2192a135.1424 134.8736 90 1 0 269.7472 0 135.1424 134.8736 90 1 0-269.7472 0Z" fill="#FF6376" p-id="2537"></path><path d="M1496.128 997.12c49.7408 0 81.472-9.1392 73.9456-80.5504-40.1408-380.864-361.728-677.632-752.4736-677.632-390.7584 0-712.32 296.7808-752.4736 677.632C57.6 987.9808 89.344 997.12 139.0848 997.12h1357.056z" fill="#FDBA55" p-id="2538"></path><path d="M1223.3216 769.9456h-98.7904c-14.08 0-25.4976-11.4432-25.4976-25.5488 0-14.1184 11.4176-25.5488 25.4976-25.5488h98.7904c14.08 0 25.4976 11.4432 25.4976 25.5488a25.5232 25.5232 0 0 1-25.4976 25.5488z" fill="#FF6376" p-id="2539"></path><path d="M759.7952 737.984c-45.952 0-83.3152-37.44-83.3152-83.4816 0-14.1056 11.4176-25.536 25.4976-25.536s25.4976 11.4304 25.4976 25.536a32.384 32.384 0 0 0 32.32 32.384 32.384 32.384 0 0 0 32.3072-32.384c0-14.1056 11.4176-25.536 25.4976-25.536s25.4976 11.4304 25.4976 25.536c0 46.0288-37.376 83.4816-83.3024 83.4816z" fill="#3F4963" p-id="2540"></path><path d="M875.4176 737.984c-45.952 0-83.3152-37.44-83.3152-83.4816 0-14.1056 11.4176-25.536 25.4976-25.536s25.5104 11.4304 25.5104 25.536a32.384 32.384 0 0 0 32.3072 32.384 32.384 32.384 0 0 0 32.3072-32.384c0-14.1056 11.4176-25.536 25.4976-25.536s25.4976 11.4304 25.4976 25.536c0 46.0288-37.376 83.4816-83.3024 83.4816zM1220.096 657.8304c-14.08 0-25.4976-11.4432-25.4976-25.5488 0-11.4304-9.28-20.7104-20.672-20.7104s-20.672 9.28-20.672 20.7104a25.5232 25.5232 0 0 1-25.5104 25.5488c-14.08 0-25.4976-11.4432-25.4976-25.5488 0-39.6032 32.1536-71.808 71.68-71.808 39.5136 0 71.6672 32.2048 71.6672 71.808a25.5232 25.5232 0 0 1-25.4976 25.5488z" fill="#3F4963" p-id="2541"></path><path d="M510.6816 769.9456h-98.7904c-14.08 0-25.4976-11.4432-25.4976-25.5488 0-14.1184 11.4176-25.5488 25.4976-25.5488h98.7904c14.08 0 25.4976 11.4432 25.4976 25.5488a25.5232 25.5232 0 0 1-25.4976 25.5488z" fill="#FF6376" p-id="2542"></path><path d="M507.456 657.8304c-14.08 0-25.4976-11.4432-25.4976-25.5488 0-11.4304-9.2672-20.7104-20.672-20.7104-11.392 0-20.672 9.28-20.672 20.7104a25.5232 25.5232 0 0 1-25.4976 25.5488c-14.08 0-25.4976-11.4432-25.4976-25.5488 0-39.6032 32.1536-71.808 71.68-71.808 39.5008 0 71.6544 32.2048 71.6544 71.808a25.5232 25.5232 0 0 1-25.4976 25.5488z" fill="#3F4963" p-id="2543"></path><path d="M1051.9296 439.6416a47.7312 47.6288 90 1 0 95.2576 0 47.7312 47.6288 90 1 0-95.2576 0Z" fill="#3F4963" opacity=".2" p-id="2544"></path><path d="M948.9792 846.7712a47.7312 47.6288 90 1 0 95.2576 0 47.7312 47.6288 90 1 0-95.2576 0Z" fill="#3F4963" opacity=".2" p-id="2545"></path><path d="M611.4688 861.0048a47.7312 47.6288 90 1 0 95.2576 0 47.7312 47.6288 90 1 0-95.2576 0Z" fill="#3F4963" opacity=".2" p-id="2546"></path><path d="M456.3584 439.6416a47.7312 47.6288 90 1 0 95.2576 0 47.7312 47.6288 90 1 0-95.2576 0Z" fill="#3F4963" opacity=".2" p-id="2547"></path><path d="M710.848 487.3728a47.7312 47.6288 90 1 0 95.2576 0 47.7312 47.6288 90 1 0-95.2576 0Z" fill="#3F4963" opacity=".2" p-id="2548"></path><path d="M193.152 799.0016a47.7312 47.6288 90 1 0 95.2576 0 47.7312 47.6288 90 1 0-95.2576 0Z" fill="#3F4963" opacity=".2" p-id="2549"></path><path d="M1346.7776 760.576a47.7312 47.6288 90 1 0 95.2576 0 47.7312 47.6288 90 1 0-95.2576 0Z" fill="#3F4963" opacity=".2" p-id="2550"></path><path d="M1582.0544 830.656a161.3568 161.3568 0 0 0 53.1584-119.424c0-39.9616-14.6688-76.5312-38.848-104.6656 2.2784-13.952 3.4304-28.1344 3.4304-42.3424 0-115.5968-75.5968-213.7856-179.84-247.68a96.0768 96.0768 0 0 0-28.224-66.2144L1205.8496 64.0896a96.5376 96.5376 0 0 0-136.5504 0L1026.4704 107.008C979.072 42.944 903.1168 1.3312 817.6 1.3312c-85.504 0-161.4848 41.6128-208.8576 105.6768L565.888 64.0896a96.5376 96.5376 0 0 0-136.5504 0l-185.8816 186.24a96.0768 96.0768 0 0 0-28.2368 66.2144C111.0016 350.4384 35.392 448.64 35.392 564.224c0 14.208 1.1776 28.3904 3.456 42.3424A160.192 160.192 0 0 0 0 711.232c0 45.6576 19.6224 89.1264 53.1584 119.424a782.5024 782.5024 0 0 0-13.3888 83.2384c-4.0448 38.4512 1.7152 64.8704 18.1376 83.1616 20.224 22.528 50.9568 25.6256 81.1648 25.6256h1357.056c30.208 0 60.9536-3.1104 81.1776-25.6256 16.4224-18.2912 22.1824-44.7104 18.1376-83.1616a781.568 781.568 0 0 0-13.3888-83.2384zM1548.8 564.224c0 1.4848-0.0896 2.9696-0.128 4.4416a159.0656 159.0656 0 0 0-87.744-17.4848 786.8928 786.8928 0 0 0-118.5024-135.168 782.5152 782.5152 0 0 0-63.616-51.8784 209.3056 209.3056 0 0 1 61.1328-9.1648c115.1616 0 208.8576 93.8752 208.8576 209.2544z m-1269.2736-277.76L465.4208 100.224a45.5296 45.5296 0 0 1 64.4096 0l52.032 52.1216a259.7632 259.7632 0 0 0-10.752 27.072 259.456 259.456 0 0 1 51.9296 6.336c30.4128-77.952 106.1248-133.3248 194.56-133.3248 88.4352 0 164.1472 55.3728 194.56 133.3248 16.9088-3.84 34.2912-5.9648 51.9168-6.336a259.2 259.2 0 0 0-10.752-27.072l52.0448-52.1216a45.5296 45.5296 0 0 1 64.4096 0l185.8944 186.24c5.3376 5.3632 9.1136 11.8272 11.2384 18.816a259.9552 259.9552 0 0 0-139.4688 24.2304 778.5344 778.5344 0 0 0-150.0544-71.7184 263.424 263.424 0 0 0-1.8304-27.2896c-1.9072-0.0512-3.8144-0.1024-5.7344-0.1024-15.3344 0-30.4256 1.6768-45.1072 4.9152 0.256 2.048 0.4992 4.096 0.704 6.1696a781.8112 781.8112 0 0 0-207.8336-28.0832c-70.8864 0-140.7232 9.6-207.8208 28.0832 0.2176-2.0608 0.4352-4.1216 0.704-6.1696A209.9456 209.9456 0 0 0 565.3632 230.4c-1.92 0-3.8272 0.0512-5.7344 0.1024-1.0752 8.96-1.6896 18.0736-1.8304 27.2896a778.7264 778.7264 0 0 0-150.0544 71.7056 259.904 259.904 0 0 0-139.4688-24.2304 45.44 45.44 0 0 1 11.264-18.8032z m15.7312 68.5056c20.7872 0 41.4208 3.136 61.1456 9.1648a783.744 783.744 0 0 0-63.6288 51.8656 786.9312 786.9312 0 0 0-118.5024 135.1808 159.1424 159.1424 0 0 0-87.7568 17.4848c-0.0256-1.4848-0.1152-2.9568-0.1152-4.4416 0-115.3792 93.696-209.2544 208.8576-209.2544zM50.9952 711.232c0-53.8624 39.0144-98.752 90.2016-107.8656a781.12 781.12 0 0 0-72.6016 167.3344 109.9136 109.9136 0 0 1-17.6-59.4688z m1488.384 251.648c-6.912 7.7056-26.752 8.704-43.2512 8.704H139.072c-16.4992 0-36.3264-0.9984-43.264-8.704-5.7216-6.3872-7.616-21.8752-5.3248-43.6224 18.8544-178.8416 102.848-344.1152 236.5184-465.3696a728.7296 728.7296 0 0 1 490.5984-189.3888c181.76 0 355.9936 67.2512 490.5984 189.376 133.6704 121.2672 217.664 286.5408 236.5184 465.3824 2.304 21.7472 0.3968 37.248-5.3248 43.6224z m27.2256-192.1664a781.12 781.12 0 0 0-72.5888-167.3472c51.1872 9.1136 90.1888 54.016 90.1888 107.8784a109.9136 109.9136 0 0 1-17.6 59.456zM933.2224 628.9408c-14.08 0-25.4976 11.4432-25.4976 25.5488a32.384 32.384 0 0 1-32.3072 32.384 32.384 32.384 0 0 1-32.3072-32.384 25.5232 25.5232 0 0 0-25.5104-25.536c-14.08 0-25.4976 11.4304-25.4976 25.536a32.384 32.384 0 0 1-32.3072 32.384 32.384 32.384 0 0 1-32.3072-32.384 25.5232 25.5232 0 0 0-25.4976-25.536c-14.0928 0-25.4976 11.4304-25.4976 25.536 0 46.0416 37.376 83.4816 83.3024 83.4816 22.4384 0 42.816-8.96 57.8048-23.4624a82.9184 82.9184 0 0 0 57.8176 23.4624c45.9392 0 83.3024-37.44 83.3024-83.4816a25.5232 25.5232 0 0 0-25.4976-25.536z m240.704-68.48c-39.5264 0-71.68 32.2048-71.68 71.808 0 14.1056 11.4176 25.536 25.4976 25.536 14.0928 0 25.5104-11.4304 25.5104-25.536 0-11.4176 9.2672-20.7232 20.672-20.7232 11.392 0 20.672 9.3056 20.672 20.7232 0 14.1056 11.4048 25.536 25.4976 25.536 14.08 0 25.4976-11.4304 25.4976-25.536 0-39.6032-32.1536-71.808-71.68-71.808z m-712.64 0c-39.5136 0-71.68 32.2048-71.68 71.808a25.5232 25.5232 0 0 0 50.9952 0c0.0128-11.4304 9.2928-20.7232 20.6848-20.7232 11.392 0 20.672 9.3056 20.672 20.7232 0 14.1056 11.4176 25.536 25.4976 25.536s25.4976-11.4304 25.4976-25.536c0-39.6032-32.1536-71.808-71.6672-71.808z" fill="#000000" p-id="2551"></path></svg>