<?xml version="1.0" standalone="no"?><!DOCTYPE svg PUBLIC "-//W3C//DTD SVG 1.1//EN" "http://www.w3.org/Graphics/SVG/1.1/DTD/svg11.dtd"><svg t="1670566294070" class="icon" viewBox="0 0 1024 1024" version="1.1" xmlns="http://www.w3.org/2000/svg" p-id="3910" xmlns:xlink="http://www.w3.org/1999/xlink" width="200" height="200"><path d="M5.1 767.5h253.5c2.8 0 5.1-2.3 5.1-5.1s-2.3-5.1-5.1-5.1H5.1c-2.8 0-5.1 2.3-5.1 5.1s2.3 5.1 5.1 5.1z m314.3 0h55.8c2.8 0 5.1-2.3 5.1-5.1s-2.3-5.1-5.1-5.1h-55.8c-2.8 0-5.1 2.3-5.1 5.1s2.3 5.1 5.1 5.1z m106.5 0h253.5c2.8 0 5.1-2.3 5.1-5.1s-2.3-5.1-5.1-5.1H425.9c-2.8 0-5.1 2.3-5.1 5.1s2.3 5.1 5.1 5.1z m314.4 0H796c2.8 0 5.1-2.3 5.1-5.1s-2.3-5.1-5.1-5.1h-55.8c-2.8 0-5.1 2.3-5.1 5.1s2.4 5.1 5.2 5.1z m106.4 0h172.4c2.8 0 5.1-2.3 5.1-5.1s-2.3-5.1-5.1-5.1H846.7c-2.8 0-5.1 2.3-5.1 5.1s2.3 5.1 5.1 5.1z" fill="#311504" p-id="3911"></path><path d="M311.9 770.1c-9.4-7.9-15.3-19.7-15.3-33 0-16.5 9.2-30.8 22.8-38H147c-23.8 0-43.1-19.3-43.1-43.1s19.3-43.1 43.1-43.1h441.1c23.8 0 43.1 19.3 43.1 43.1 0 16.5-9.2 30.8-22.8 38h172.4c23.8 0 43.1 19.3 43.1 43.1s-19.3 43.1-43.1 43.1H539.9c9.4 7.9 15.3 19.7 15.3 33 0 23.8-19.3 43.1-43.1 43.1H71c-23.8 0-43.1-19.3-43.1-43.1s19.3-43.1 43.1-43.1h240.9zM719.2 227.5H605.9c-11.2 0-20.3 9.1-20.3 20.3 0 11.2 9.1 20.3 20.3 20.3h212.9c11.2 0 20.3-9.1 20.3-20.3 0-6.1-2.7-11.5-6.9-15.2h113.3c11.2 0 20.3-9.1 20.3-20.3 0-11.2-9.1-20.3-20.3-20.3H732.6c-11.2 0-20.3 9.1-20.3 20.3 0.1 6.1 2.7 11.5 6.9 15.2z m190.9 81.2H697.2c-11.2 0-20.3-9.1-20.3-20.3 0-11.2 9.1-20.3 20.3-20.3h212.9c11.2 0 20.3 9.1 20.3 20.3 0 11.2-9.1 20.3-20.3 20.3zM335.4 389.8h113.3c11.2 0 20.3-9.1 20.3-20.3 0-11.2-9.1-20.3-20.3-20.3H235.8c-11.2 0-20.3 9.1-20.3 20.3 0 6.1 2.7 11.5 6.9 15.2H109c-11.2 0-20.3 9.1-20.3 20.3 0 11.2 9.1 20.3 20.3 20.3h213c11.2 0 20.3-9.1 20.3-20.3-0.1-6.1-2.7-11.5-6.9-15.2z m-190.9-81.1h212.9c11.2 0 20.3 9.1 20.3 20.3 0 11.2-9.1 20.3-20.3 20.3H144.5c-11.2 0-20.3-9.1-20.3-20.3 0-11.3 9.1-20.3 20.3-20.3z" fill="#85B4F7" p-id="3912"></path><path d="M139.4 654.8C208.1 774.4 337 854.9 484.8 854.9c219.8 0 398-178.2 398-398 0-155.9-89.6-290.8-220.1-356.1 33.5 58.3 52.6 125.9 52.6 197.9 0 219.8-178.2 398-398 398-63.9 0-124.3-15.1-177.9-41.9z" fill="#FFCE1F" p-id="3913"></path><path d="M687.7 149c-6.8-16.7-14.6-32.7-23.5-48.2C795 166.2 884.8 301.4 884.8 457.6c0 220.2-178.6 398.7-399 398.7-8.5 0-17-0.3-25.4-0.8 208.5-13.1 373.5-186.2 373.5-397.9 0-124.4-56.9-235.5-146.2-308.6z" fill="#CD7E24" p-id="3914"></path><path d="M84.3 657.4c-1.4-2.4-0.6-5.5 1.9-6.9 2.4-1.4 5.5-0.6 6.9 1.9C135 725.3 199.4 783.2 276.4 817c2.6 1.1 3.7 4.1 2.6 6.7-1.1 2.6-4.1 3.7-6.7 2.6-79-34.7-145-94.1-188-168.9z m192.8 170.9c-2.6-1.1-3.8-4.1-2.7-6.6 1.1-2.6 4.1-3.8 6.6-2.7 1.5 0.7 3.1 1.3 4.6 1.9 2.6 1.1 3.8 4 2.8 6.6-1.1 2.6-4 3.8-6.6 2.8-1.6-0.7-3.2-1.4-4.7-2z m53.6 18.3c-2.7-0.7-4.3-3.5-3.6-6.2 0.7-2.7 3.5-4.3 6.2-3.6 32.6 8.6 66.4 13.1 100.8 13.1 50.2 0 99.2-9.4 144.9-27.6 2.6-1 5.6 0.2 6.6 2.8 1 2.6-0.2 5.5-2.8 6.6-46.9 18.6-97.1 28.3-148.6 28.3-35.4 0-70-4.5-103.5-13.4z m256.8-16.8c-2.6 1.1-5.6-0.2-6.6-2.8-1.1-2.6 0.2-5.6 2.8-6.6 1.5-0.6 3.1-1.3 4.6-1.9 2.6-1.1 5.6 0.1 6.7 2.7 1.1 2.6-0.1 5.6-2.7 6.7-1.6 0.6-3.2 1.2-4.8 1.9z m50.5-25.1c-2.4 1.4-5.5 0.6-6.9-1.8-1.4-2.4-0.6-5.5 1.8-6.9 72.5-42.6 129.8-107.5 162.8-184.9 1.1-2.6 4.1-3.8 6.7-2.7 2.6 1.1 3.8 4.1 2.7 6.7-34 79.3-92.8 146-167.1 189.6z m169-194.4c-1.1 2.6-4 3.8-6.6 2.8-2.6-1.1-3.8-4-2.8-6.6 0.6-1.5 1.3-3.1 1.9-4.6 1-2.6 4-3.9 6.6-2.8 2.6 1 3.9 4 2.8 6.6-0.6 1.5-1.3 3-1.9 4.6z m17.8-53.7c-0.7 2.7-3.5 4.4-6.2 3.7-2.7-0.7-4.4-3.5-3.7-6.2 8-31.4 12.1-63.8 12.1-96.8 0-52.1-10-102.4-29.2-149.3-1.1-2.6 0.2-5.6 2.8-6.6 2.6-1.1 5.6 0.2 6.6 2.8 19.7 48.1 30 99.8 30 153.1 0 33.8-4.2 67.1-12.4 99.3z m-19.6-257.2c1.1 2.6-0.1 5.6-2.7 6.6s-5.6-0.1-6.6-2.7c-0.7-1.5-1.3-3.1-2-4.6-1.1-2.6 0-5.6 2.6-6.7 2.6-1.1 5.6 0 6.7 2.6 0.7 1.6 1.4 3.2 2 4.8zM629.8 123.6c1.2 2.5 0.2 5.6-2.4 6.8-2.5 1.2-5.6 0.2-6.8-2.4-4.1-8.4-8.4-16.6-13.1-24.7-2.5-4.4 2.2-9.3 6.7-7.1 68.4 34.2 125.9 87.4 165.3 152.9 1.4 2.4 0.7 5.5-1.7 7-2.4 1.4-5.5 0.7-7-1.7-35.6-59.1-86.2-107.9-146.4-141.3 2 3.5 3.7 7 5.4 10.5z m-7 9c-1.2-2.5-0.1-5.6 2.4-6.7 2.5-1.2 5.6-0.1 6.7 2.4 0.7 1.6 1.4 3.1 2.1 4.7 1.2 2.6 0 5.6-2.5 6.7s-5.6 0-6.7-2.5c-0.6-1.6-1.3-3.1-2-4.6z m19.8 51.4c-0.8-2.7 0.7-5.5 3.4-6.3s5.5 0.7 6.3 3.4c11.5 37.8 17.5 77.4 17.5 117.7 0 46.5-7.9 92-23.1 134.9-0.9 2.6-3.8 4-6.5 3.1-2.6-0.9-4-3.8-3.1-6.5 14.9-41.9 22.5-86.2 22.5-131.5 0-39.4-5.8-78-17-114.8z m-7.3 251c1-2.6 3.9-4 6.5-3s4 3.9 3 6.5l-1.8 4.8c-1 2.6-3.9 3.9-6.6 2.9-2.6-1-3.9-3.9-2.9-6.6 0.7-1.5 1.2-3.1 1.8-4.6z m-22.6 50c1.3-2.5 4.4-3.4 6.9-2.1 2.5 1.3 3.4 4.4 2.1 6.9-41 75.9-105.5 137-183.5 173.8-2.5 1.2-5.6 0.1-6.7-2.4s-0.1-5.6 2.4-6.7c76-35.9 138.9-95.5 178.8-169.5zM429.3 656.5c2.5-1.2 5.6 0 6.7 2.5 1.2 2.5 0 5.6-2.5 6.7-1.6 0.7-3.1 1.4-4.7 2.1-2.6 1.1-5.6 0-6.7-2.6-1.1-2.6 0-5.6 2.6-6.7 1.5-0.6 3-1.3 4.6-2z m-51.8 19.3c2.7-0.8 5.5 0.7 6.3 3.4s-0.7 5.5-3.4 6.3c-36.5 10.7-74.6 16.2-113.4 16.3-48.4 0-95.3-8.4-139.5-24.7-2.6-1-4-3.9-3-6.5s3.9-4 6.5-3c43.1 15.9 88.8 24 136 24 37.8 0 74.9-5.4 110.5-15.8z m-251.2-10c2.6 1 3.9 3.9 2.9 6.5s-3.9 3.9-6.5 2.9c-1.6-0.6-3.2-1.2-4.8-1.9-2.6-1-3.9-4-2.8-6.6 1-2.6 4-3.9 6.6-2.8 1.5 0.7 3 1.4 4.6 1.9zM579.5 604c21.2 18.7 48.3 29.2 77.1 29.2 16.3 0 32.2-3.4 46.9-9.8 2.6-1.1 3.7-4.1 2.6-6.7-1.1-2.6-4.1-3.7-6.7-2.6-13.4 5.9-27.9 8.9-42.8 8.9-26.3 0-51.1-9.6-70.4-26.6-2.1-1.9-5.3-1.7-7.2 0.4-1.8 2.2-1.6 5.4 0.5 7.2z" fill="#311504" p-id="3915"></path><path d="M714.9 498.8m-22.8 0a22.8 22.8 0 1 0 45.6 0 22.8 22.8 0 1 0-45.6 0Z" fill="#311504" p-id="3916"></path></svg>